<?xml version="1.0" encoding="iso-8859-1"?>
<!-- Generator: Adobe Illustrator 19.0.0, SVG Export Plug-In . SVG Version: 6.00 Build 0)  -->
<svg version="1.1" id="Capa_1" xmlns="http://www.w3.org/2000/svg" xmlns:xlink="http://www.w3.org/1999/xlink" x="0px" y="0px"
	 viewBox="0 0 512.001 512.001" style="enable-background:new 0 0 512.001 512.001;" xml:space="preserve"  stroke="#ffffff"  fill="#fff">
<g>
	<g>
		<path d="M509.071,447.411l-106.97-106.969c17.784-42.61,8.255-92.039-24.754-125.047c-2.135-2.135-4.352-4.162-6.628-6.103
			v-52.719c0-4.559-3.084-8.542-7.498-9.682l-24.234-6.262c-3.235-11.148-7.671-21.89-13.238-32.057L341.945,83.3
			c2.535-3.956,1.974-9.144-1.349-12.467l-40.711-40.712c-3.322-3.322-8.511-3.885-12.467-1.348l-25.272,16.196
			c-10.167-5.567-20.908-10.003-32.057-13.238l-6.261-24.233C222.688,3.084,218.706,0,214.147,0h-57.574
			c-4.56,0-8.542,3.084-9.682,7.498l-6.261,24.234c-11.148,3.235-21.889,7.671-32.056,13.238L83.301,28.776
			c-3.957-2.537-9.144-1.976-12.466,1.348l-40.712,40.71c-3.323,3.323-3.884,8.511-1.349,12.467l16.196,25.272
			c-5.567,10.167-10.002,20.908-13.238,32.057l-24.234,6.262C3.084,148.031,0,152.014,0,156.573v57.574
			c0,4.559,3.084,8.542,7.499,9.682l24.233,6.261c3.236,11.148,7.671,21.89,13.238,32.057l-16.196,25.272
			c-2.535,3.956-1.974,9.144,1.348,12.467l40.711,40.711c3.323,3.322,8.512,3.884,12.467,1.349l25.273-16.196
			c10.168,5.567,20.908,10.003,32.056,13.239l6.261,24.233c1.141,4.414,5.123,7.498,9.682,7.498h52.719
			c1.941,2.277,3.968,4.494,6.103,6.629c33.008,33.008,82.436,42.537,125.047,24.753l106.969,106.97
			c1.953,1.952,4.512,2.929,7.071,2.929c2.56,0,5.118-0.977,7.071-2.929l47.518-47.518
			C512.977,457.649,512.977,451.317,509.071,447.411z M164.317,350.721v-0.001l-5.779-22.369c-0.917-3.548-3.702-6.311-7.257-7.199
			c-13.345-3.336-26.081-8.608-37.853-15.669c-3.258-1.955-7.342-1.893-10.54,0.155l-23.603,15.126l-29.33-29.329l15.125-23.603
			c2.05-3.198,2.11-7.282,0.156-10.54c-7.061-11.771-12.333-24.507-15.668-37.854c-0.889-3.556-3.651-6.341-7.2-7.257L20,206.402
			v-42.084l22.369-5.78c3.549-0.916,6.312-3.701,7.2-7.257c3.335-13.347,8.607-26.083,15.668-37.854
			c1.955-3.258,1.894-7.342-0.156-10.54L49.956,79.285l29.33-29.329l23.602,15.126c3.2,2.049,7.283,2.11,10.54,0.155
			c11.771-7.061,24.506-12.333,37.852-15.667c3.556-0.889,6.341-3.651,7.258-7.2L164.317,20h42.085l5.779,22.369
			c0.917,3.55,3.702,6.313,7.258,7.201c13.346,3.334,26.081,8.605,37.853,15.667c3.257,1.954,7.341,1.895,10.54-0.156l23.603-15.126
			l29.329,29.33l-15.125,23.603c-2.05,3.198-2.11,7.282-0.156,10.54c7.062,11.771,12.333,24.507,15.667,37.853
			c0.889,3.557,3.651,6.342,7.2,7.258l22.37,5.78v31.221c-10.832-5.844-22.558-9.899-34.77-12.003
			c-0.003-0.195-0.012-0.389-0.015-0.584c-0.009-0.482-0.024-0.964-0.038-1.446c-0.019-0.629-0.04-1.258-0.068-1.887
			c-0.022-0.486-0.047-0.97-0.074-1.455c-0.035-0.625-0.074-1.249-0.117-1.873c-0.034-0.483-0.07-0.965-0.109-1.447
			c-0.051-0.628-0.108-1.255-0.168-1.882c-0.045-0.473-0.091-0.947-0.141-1.419c-0.068-0.639-0.144-1.277-0.222-1.915
			c-0.056-0.457-0.109-0.913-0.17-1.369c-0.088-0.665-0.185-1.328-0.284-1.991c-0.063-0.426-0.122-0.852-0.19-1.277
			c-0.116-0.73-0.242-1.457-0.37-2.184c-0.062-0.354-0.119-0.71-0.184-1.064c-0.191-1.036-0.394-2.07-0.61-3.101
			c-0.009-0.042-0.016-0.085-0.025-0.126c-0.227-1.08-0.469-2.156-0.723-3.229c-0.073-0.308-0.154-0.614-0.229-0.922
			c-0.185-0.757-0.372-1.514-0.571-2.268c-0.104-0.393-0.215-0.784-0.322-1.176c-0.182-0.666-0.365-1.332-0.558-1.995
			c-0.122-0.421-0.251-0.84-0.378-1.26c-0.19-0.631-0.382-1.262-0.582-1.889c-0.138-0.432-0.28-0.863-0.422-1.294
			c-0.202-0.612-0.406-1.223-0.617-1.832c-0.151-0.436-0.305-0.87-0.46-1.304c-0.215-0.602-0.435-1.203-0.659-1.801
			c-0.161-0.431-0.325-0.862-0.491-1.292c-0.232-0.601-0.47-1.199-0.711-1.796c-0.17-0.421-0.34-0.843-0.514-1.262
			c-0.252-0.607-0.512-1.21-0.773-1.813c-0.175-0.403-0.348-0.807-0.526-1.208c-0.28-0.628-0.569-1.252-0.858-1.875
			c-0.172-0.371-0.34-0.742-0.516-1.111c-0.33-0.692-0.67-1.38-1.012-2.067c-0.146-0.294-0.287-0.59-0.436-0.883
			c-0.994-1.961-2.038-3.897-3.132-5.808c-0.162-0.284-0.332-0.563-0.496-0.845c-0.388-0.666-0.777-1.331-1.177-1.99
			c-0.214-0.353-0.435-0.701-0.652-1.052c-0.361-0.584-0.723-1.167-1.094-1.745c-0.241-0.376-0.488-0.748-0.733-1.122
			c-0.359-0.547-0.719-1.092-1.086-1.634c-0.261-0.385-0.526-0.767-0.791-1.149c-0.364-0.525-0.73-1.048-1.102-1.567
			c-0.275-0.385-0.553-0.767-0.833-1.149c-0.374-0.512-0.753-1.021-1.135-1.527c-0.286-0.38-0.574-0.758-0.865-1.134
			c-0.389-0.504-0.784-1.005-1.181-1.504c-0.293-0.368-0.586-0.737-0.884-1.103c-0.41-0.504-0.827-1.004-1.245-1.502
			c-0.295-0.352-0.588-0.705-0.887-1.054c-0.44-0.513-0.888-1.021-1.336-1.528c-0.288-0.326-0.573-0.654-0.865-0.977
			c-0.501-0.555-1.012-1.103-1.523-1.65c-0.248-0.265-0.491-0.535-0.742-0.798c-0.767-0.807-1.544-1.607-2.333-2.397
			c-24.67-24.67-57.47-38.257-92.358-38.257s-67.688,13.587-92.358,38.257c-50.926,50.927-50.926,133.789,0,184.716
			c0.76,0.76,1.528,1.509,2.304,2.247c0.27,0.257,0.545,0.505,0.816,0.759c0.511,0.478,1.02,0.958,1.538,1.426
			c0.326,0.295,0.659,0.582,0.987,0.874c0.47,0.418,0.939,0.838,1.415,1.248c0.349,0.301,0.704,0.592,1.055,0.889
			c0.464,0.392,0.926,0.787,1.396,1.171c0.359,0.294,0.723,0.579,1.085,0.869c0.47,0.377,0.937,0.757,1.411,1.126
			c0.367,0.286,0.74,0.564,1.109,0.846c0.476,0.363,0.95,0.729,1.431,1.085c0.376,0.278,0.757,0.548,1.135,0.823
			c0.481,0.349,0.961,0.7,1.446,1.042c0.384,0.27,0.773,0.533,1.16,0.799c0.487,0.335,0.972,0.672,1.464,1.001
			c0.39,0.26,0.784,0.512,1.176,0.768c0.495,0.323,0.99,0.649,1.489,0.965c0.393,0.249,0.79,0.49,1.186,0.735
			c0.505,0.312,1.009,0.626,1.518,0.932c0.396,0.237,0.795,0.467,1.193,0.7c0.515,0.302,1.03,0.605,1.549,0.899
			c0.398,0.226,0.8,0.445,1.201,0.666c0.524,0.29,1.048,0.581,1.576,0.864c0.403,0.216,0.809,0.425,1.215,0.636
			c0.531,0.277,1.062,0.555,1.596,0.825c0.406,0.205,0.816,0.404,1.224,0.605c0.539,0.265,1.078,0.531,1.62,0.788
			c0.41,0.195,0.823,0.383,1.235,0.573c0.546,0.252,1.092,0.505,1.642,0.75c0.414,0.184,0.829,0.363,1.245,0.542
			c0.553,0.24,1.106,0.479,1.662,0.71c0.416,0.174,0.835,0.341,1.253,0.51c0.56,0.227,1.121,0.453,1.684,0.672
			c0.419,0.163,0.84,0.32,1.261,0.479c0.566,0.213,1.132,0.426,1.701,0.631c0.424,0.153,0.85,0.301,1.276,0.45
			c0.569,0.199,1.139,0.397,1.71,0.588c0.429,0.144,0.86,0.282,1.29,0.421c0.574,0.185,1.149,0.369,1.726,0.547
			c0.432,0.133,0.864,0.261,1.297,0.389c0.578,0.171,1.156,0.341,1.736,0.504c0.438,0.123,0.878,0.242,1.318,0.361
			c0.578,0.156,1.156,0.31,1.736,0.458c0.446,0.114,0.893,0.224,1.34,0.333c0.578,0.141,1.157,0.28,1.737,0.413
			c0.451,0.103,0.902,0.203,1.354,0.302c0.579,0.127,1.159,0.251,1.741,0.369c0.458,0.094,0.916,0.184,1.375,0.272
			c0.577,0.112,1.156,0.22,1.735,0.324c0.466,0.083,0.932,0.164,1.399,0.242c0.575,0.097,1.151,0.19,1.727,0.279
			c0.474,0.073,0.948,0.143,1.423,0.211c0.572,0.082,1.145,0.16,1.718,0.235c0.481,0.062,0.963,0.122,1.445,0.179
			c0.569,0.067,1.138,0.131,1.707,0.191c0.491,0.051,0.982,0.1,1.473,0.146c0.563,0.053,1.125,0.101,1.689,0.147
			c0.501,0.04,1.002,0.078,1.504,0.113c0.555,0.038,1.111,0.072,1.667,0.103c0.512,0.029,1.024,0.055,1.536,0.078
			c0.547,0.024,1.094,0.044,1.642,0.061c0.524,0.017,1.049,0.031,1.574,0.042c0.227,0.004,0.453,0.015,0.68,0.018
			c2.104,12.211,6.159,23.937,12.004,34.769H164.317z M260.165,208.601c0.077,0.08,0.148,0.164,0.227,0.243
			c0.215,0.217,11.813,11.904,24.549,24.722c-0.068,0.14-0.136,0.28-0.204,0.419c-0.591,1.209-1.198,2.409-1.832,3.594
			c-0.07,0.131-0.144,0.26-0.215,0.391c-0.612,1.133-1.246,2.254-1.897,3.364c-0.104,0.178-0.206,0.357-0.311,0.535
			c-0.681,1.145-1.385,2.274-2.107,3.393c-0.149,0.231-0.299,0.461-0.449,0.69c-0.732,1.116-1.481,2.22-2.253,3.309
			c-0.117,0.164-0.237,0.326-0.354,0.49c-0.766,1.066-1.549,2.121-2.353,3.161c-0.074,0.096-0.146,0.194-0.221,0.289
			c-0.838,1.076-1.703,2.135-2.582,3.182c-0.167,0.199-0.334,0.398-0.502,0.596c-0.87,1.021-1.759,2.029-2.668,3.022
			c-0.161,0.176-0.325,0.349-0.487,0.524c-0.957,1.031-1.928,2.052-2.928,3.051c-1.002,1.002-2.024,1.976-3.058,2.935
			c-0.171,0.159-0.341,0.32-0.514,0.478c-0.996,0.913-2.007,1.805-3.032,2.678c-0.194,0.165-0.389,0.328-0.583,0.491
			c-1.052,0.884-2.115,1.752-3.196,2.594c-0.088,0.068-0.177,0.134-0.265,0.202c-1.053,0.815-2.12,1.607-3.2,2.382
			c-0.154,0.11-0.306,0.223-0.46,0.333c-1.098,0.779-2.212,1.534-3.337,2.272c-0.218,0.143-0.436,0.285-0.654,0.426
			c-1.132,0.73-2.275,1.443-3.433,2.131c-0.156,0.093-0.314,0.182-0.471,0.274c-1.146,0.673-2.304,1.328-3.475,1.959
			c-0.1,0.054-0.199,0.111-0.3,0.165c-1.211,0.648-2.438,1.269-3.676,1.873c-0.121,0.059-0.242,0.118-0.364,0.177
			c-0.978-0.972-1.948-1.936-2.909-2.891c-8.092-8.042-15.403-15.302-19.141-19.013c-0.04-0.04-0.08-0.079-0.119-0.118
			c4.249-1.412,8.382-3.161,12.335-5.256c4.88-2.586,6.739-8.639,4.153-13.519c-2.586-4.88-8.636-6.741-13.519-4.153
			c-23.794,12.61-53.702,8.126-72.731-10.903c-11.66-11.659-18.08-27.19-18.08-43.731c0-16.542,6.421-32.073,18.081-43.732
			c16.251-16.252,40.037-22.122,62.082-15.319c5.275,1.623,10.876-1.329,12.504-6.606c1.629-5.277-1.329-10.876-6.607-12.505
			c-29.144-8.993-60.613-1.22-82.121,20.288c-15.438,15.438-23.939,35.99-23.939,57.875c0,21.884,8.501,42.437,23.938,57.874
			c12.619,12.618,28.625,20.613,46.289,23.12c3.797,0.539,7.627,0.806,11.454,0.806c0.139,0,0.279-0.006,0.418-0.006
			c-0.257,0.976-0.51,1.953-0.74,2.934c-0.023,0.1-0.043,0.2-0.066,0.3c-1.949,8.385-2.949,16.919-2.982,25.509
			c-0.473-0.015-0.947-0.03-1.42-0.052c-0.23-0.012-0.459-0.021-0.688-0.032c-0.812-0.042-1.624-0.093-2.434-0.153
			c-0.117-0.009-0.234-0.015-0.35-0.024c-2.86-0.219-5.704-0.549-8.527-0.987c-0.135-0.021-0.269-0.044-0.404-0.066
			c-0.785-0.125-1.568-0.257-2.35-0.398c-0.206-0.037-0.411-0.077-0.617-0.116c-0.711-0.133-1.421-0.272-2.128-0.418
			c-0.236-0.049-0.471-0.099-0.707-0.15c-0.682-0.146-1.363-0.298-2.041-0.457c-0.241-0.056-0.482-0.113-0.723-0.171
			c-0.682-0.164-1.361-0.336-2.04-0.513c-0.228-0.06-0.455-0.118-0.683-0.179c-0.715-0.192-1.427-0.392-2.138-0.598
			c-0.182-0.053-0.365-0.103-0.546-0.156c-0.828-0.245-1.654-0.499-2.476-0.762c-0.06-0.019-0.121-0.037-0.181-0.056
			c-1.804-0.582-3.593-1.21-5.364-1.884c-0.14-0.053-0.279-0.11-0.42-0.164c-0.717-0.276-1.432-0.558-2.143-0.848
			c-0.242-0.099-0.483-0.202-0.725-0.303c-0.609-0.254-1.216-0.511-1.82-0.776c-0.279-0.122-0.556-0.247-0.834-0.372
			c-0.564-0.252-1.126-0.509-1.685-0.771c-0.296-0.139-0.591-0.279-0.886-0.42c-0.542-0.26-1.083-0.525-1.621-0.794
			c-0.296-0.148-0.592-0.295-0.887-0.446c-0.542-0.277-1.081-0.56-1.618-0.845c-0.282-0.15-0.564-0.298-0.844-0.45
			c-0.568-0.308-1.131-0.624-1.693-0.942c-0.243-0.137-0.488-0.272-0.73-0.411c-0.678-0.39-1.351-0.789-2.021-1.194
			c-0.122-0.073-0.245-0.144-0.366-0.218c-0.796-0.485-1.585-0.98-2.369-1.485c-0.168-0.108-0.333-0.221-0.5-0.33
			c-0.605-0.395-1.208-0.793-1.806-1.199c-0.269-0.183-0.535-0.371-0.802-0.557c-0.491-0.34-0.981-0.682-1.466-1.03
			c-0.298-0.214-0.594-0.432-0.89-0.65c-0.451-0.331-0.902-0.664-1.348-1.002c-0.306-0.232-0.611-0.467-0.915-0.702
			c-0.43-0.333-0.859-0.669-1.284-1.008c-0.308-0.245-0.615-0.492-0.92-0.741c-0.42-0.342-0.837-0.689-1.252-1.038
			c-0.3-0.252-0.6-0.503-0.897-0.758c-0.422-0.362-0.839-0.729-1.256-1.098c-0.283-0.25-0.567-0.498-0.847-0.752
			c-0.445-0.402-0.884-0.811-1.322-1.22c-0.244-0.228-0.491-0.452-0.733-0.682c-0.615-0.585-1.224-1.178-1.826-1.778
			c-0.057-0.057-0.116-0.112-0.173-0.168c-28.303-28.303-38.032-68.254-29.188-104.564c1.053-4.323,2.369-8.594,3.949-12.787
			c0.632-1.678,1.306-3.343,2.022-4.994c5.37-12.383,13.109-23.977,23.217-34.085c20.892-20.893,48.669-32.399,78.215-32.399
			c29.546,0,57.324,11.507,78.216,32.399c0.661,0.661,1.312,1.332,1.955,2.008c0.213,0.224,0.421,0.453,0.632,0.679
			c0.427,0.457,0.853,0.914,1.271,1.377c0.243,0.269,0.481,0.541,0.721,0.813c0.379,0.428,0.757,0.857,1.129,1.29
			c0.249,0.29,0.493,0.582,0.739,0.874c0.354,0.422,0.706,0.845,1.054,1.271c0.246,0.302,0.491,0.606,0.734,0.911
			c0.34,0.426,0.677,0.855,1.01,1.287c0.237,0.306,0.473,0.612,0.706,0.92c0.334,0.442,0.664,0.887,0.991,1.334
			c0.221,0.302,0.444,0.603,0.662,0.907c0.337,0.47,0.667,0.944,0.997,1.418c0.199,0.286,0.401,0.571,0.596,0.859
			c0.376,0.553,0.744,1.111,1.11,1.671c0.139,0.212,0.282,0.422,0.419,0.634c0.497,0.771,0.984,1.548,1.462,2.331
			c0.123,0.202,0.24,0.407,0.362,0.609c0.352,0.586,0.703,1.174,1.044,1.766c0.175,0.303,0.343,0.61,0.515,0.915
			c0.279,0.496,0.558,0.992,0.83,1.492c0.184,0.338,0.362,0.678,0.542,1.018c0.251,0.473,0.5,0.948,0.744,1.425
			c0.181,0.354,0.359,0.709,0.536,1.065c0.234,0.47,0.465,0.941,0.692,1.414c0.173,0.361,0.345,0.722,0.514,1.085
			c0.223,0.477,0.441,0.955,0.657,1.435c0.162,0.361,0.325,0.721,0.483,1.084c0.215,0.492,0.424,0.986,0.631,1.481
			c0.148,0.354,0.299,0.706,0.444,1.061c0.216,0.53,0.424,1.063,0.632,1.597c0.125,0.322,0.255,0.642,0.377,0.965
			c0.266,0.701,0.522,1.406,0.773,2.113c0.056,0.158,0.116,0.314,0.172,0.472c0.3,0.855,0.588,1.713,0.867,2.575
			c0.102,0.316,0.197,0.634,0.297,0.951c0.175,0.559,0.35,1.118,0.517,1.68c0.109,0.367,0.212,0.737,0.317,1.105
			c0.147,0.515,0.293,1.029,0.432,1.546c0.105,0.389,0.205,0.779,0.305,1.168c0.13,0.502,0.257,1.005,0.38,1.51
			c0.096,0.397,0.19,0.794,0.282,1.192c0.116,0.502,0.229,1.006,0.338,1.51c0.087,0.399,0.172,0.799,0.254,1.199
			c0.105,0.511,0.204,1.023,0.302,1.535c0.075,0.394,0.151,0.788,0.222,1.183c0.096,0.535,0.184,1.071,0.272,1.608
			c0.061,0.373,0.125,0.745,0.183,1.118c0.094,0.61,0.178,1.222,0.261,1.834c0.041,0.302,0.087,0.602,0.126,0.904
			c0.116,0.906,0.222,1.813,0.315,2.722c0.025,0.238,0.043,0.478,0.065,0.716c0.066,0.682,0.13,1.365,0.183,2.049
			c0.028,0.356,0.048,0.713,0.072,1.07c0.039,0.568,0.077,1.136,0.107,1.706c0.021,0.391,0.035,0.782,0.052,1.173
			c0.015,0.36,0.027,0.72,0.039,1.081c-10.028,0.037-19.984,1.385-29.709,4.034c-4.618,1.257-8.396,5.058-9.626,9.683
			c-0.077,0.291-0.144,0.583-0.201,0.877c-0.032,0.164-0.053,0.329-0.078,0.494c-0.02,0.129-0.045,0.258-0.061,0.387
			c-0.03,0.246-0.049,0.493-0.065,0.739c-0.003,0.048-0.01,0.096-0.013,0.143C255.945,201.955,257.37,205.684,260.165,208.601z
			 M305.637,267.834l7.714,12.037c-1.117,9.211-2.35,17.011-3.56,22.535l-7.472,7.473c-5.485,1.213-13.219,2.44-22.342,3.546
			l-12.147-7.784c-1.643-1.053-3.518-1.581-5.396-1.581c-1.779,0-3.559,0.474-5.144,1.425c-0.641,0.385-1.288,0.764-1.945,1.143
			c-2.112-2.105-4.439-4.423-6.893-6.865c0.157-0.088,0.307-0.18,0.461-0.266c1.168-0.65,2.329-1.312,3.475-1.997
			c0.034-0.02,0.067-0.041,0.101-0.061c1.14-0.683,2.265-1.389,3.383-2.107c0.316-0.203,0.631-0.409,0.946-0.615
			c0.952-0.623,1.897-1.259,2.833-1.907c0.198-0.137,0.398-0.27,0.595-0.408c1.106-0.775,2.198-1.571,3.281-2.381
			c0.265-0.198,0.526-0.401,0.79-0.601c0.876-0.667,1.744-1.345,2.604-2.034c0.256-0.205,0.514-0.408,0.768-0.616
			c1.054-0.858,2.097-1.731,3.126-2.624c0.178-0.154,0.353-0.314,0.53-0.469c0.871-0.764,1.733-1.541,2.586-2.33
			c0.27-0.25,0.541-0.5,0.809-0.752c1.003-0.943,1.999-1.898,2.977-2.876c0.976-0.976,1.928-1.969,2.869-2.97
			c0.257-0.273,0.511-0.548,0.765-0.823c0.78-0.844,1.549-1.696,2.304-2.558c0.163-0.186,0.33-0.369,0.492-0.556
			c0.889-1.025,1.758-2.063,2.613-3.112c0.212-0.26,0.419-0.523,0.628-0.784c0.685-0.854,1.358-1.716,2.02-2.586
			c0.203-0.267,0.409-0.532,0.61-0.801c0.81-1.081,1.604-2.173,2.379-3.277c0.136-0.194,0.267-0.391,0.402-0.586
			c0.653-0.943,1.293-1.894,1.921-2.853c0.2-0.306,0.4-0.612,0.598-0.92c1.473-2.293,2.873-4.632,4.198-7.015
			c0.077-0.139,0.16-0.273,0.237-0.412c2.433,2.445,4.748,4.771,6.864,6.896c-0.376,0.652-0.754,1.296-1.136,1.932
			C303.527,260.552,303.588,264.636,305.637,267.834z M478.241,464.099l-69.282-69.282c-3.906-3.904-10.236-3.904-14.143,0
			c-3.905,3.905-3.905,10.237,0,14.143l69.282,69.282l-9.616,9.616L350.35,383.725c-0.08-0.079-0.154-0.162-0.23-0.244l-0.208-0.221
			c-1.936-2.052-4.585-3.138-7.276-3.138c-1.5,0-3.014,0.337-4.424,1.033c-36.331,17.933-80.005,10.722-108.673-17.949
			c-21.196-21.196-30.94-51.248-26.676-80.565c5.673,5.634,13.616,13.523,21.464,21.326c0,0,0.001,0.001,0.002,0.002
			c8.493,8.444,16.865,16.776,22.159,22.068c0.003,0.003,0.006,0.006,0.009,0.009c0.211,0.211,0.425,0.425,0.626,0.626
			c9.09,9.09,19.854,8.361,22.87,7.942c16.94-1.522,28.319-3.322,36.03-5.077c1.343-0.29,2.636-0.59,3.849-0.9
			c0.312-0.08,0.613-0.192,0.915-0.301c8.644-2.427,10.838-4.617,11.886-5.666c1.161-1.161,3.375-3.391,5.811-12.483
			c0.026-0.091,0.065-0.177,0.088-0.269c0.093-0.368,0.184-0.753,0.276-1.134c1.892-7.54,3.891-19.317,5.618-38.028
			c0.458-2.986,1.542-14.277-6.517-22.336c-2.621-2.62-6.287-6.299-10.479-10.51c-4.151-4.171-8.816-8.862-13.501-13.576
			c-7.824-7.872-15.701-15.803-21.33-21.474c29.322-4.267,59.366,5.472,80.569,26.677c28.671,28.669,35.884,72.342,17.95,108.673
			c-1.94,3.932-1.095,8.669,2.088,11.685l0.481,0.454L487.86,454.482L478.241,464.099z"/>
	</g>
</g>
<g>
	<g>
		<path d="M386.939,375.19c-0.13-0.64-0.319-1.27-0.569-1.88c-0.25-0.6-0.56-1.18-0.92-1.72c-0.36-0.55-0.78-1.06-1.24-1.521
			c-0.46-0.46-0.97-0.88-1.52-1.25c-0.541-0.359-1.121-0.659-1.73-0.909c-0.601-0.25-1.23-0.45-1.87-0.57
			c-1.29-0.26-2.62-0.26-3.9,0c-0.64,0.12-1.27,0.32-1.88,0.57c-0.6,0.25-1.18,0.55-1.72,0.909c-0.55,0.37-1.06,0.79-1.521,1.25
			c-0.46,0.461-0.88,0.971-1.25,1.521c-0.359,0.54-0.67,1.12-0.92,1.72c-0.25,0.61-0.439,1.24-0.569,1.88
			c-0.13,0.641-0.191,1.301-0.191,1.95c0,0.65,0.061,1.311,0.191,1.95c0.13,0.64,0.319,1.27,0.569,1.87
			c0.25,0.609,0.561,1.189,0.92,1.729c0.37,0.551,0.79,1.061,1.25,1.521c0.461,0.46,0.971,0.88,1.521,1.24
			c0.54,0.359,1.12,0.67,1.72,0.92c0.61,0.25,1.24,0.439,1.88,0.569c0.641,0.13,1.301,0.2,1.95,0.2c0.65,0,1.311-0.07,1.95-0.2
			c0.64-0.13,1.27-0.319,1.87-0.569c0.609-0.25,1.189-0.561,1.73-0.92c0.551-0.36,1.06-0.78,1.52-1.24
			c0.46-0.46,0.88-0.97,1.24-1.521c0.359-0.54,0.67-1.12,0.92-1.729c0.25-0.601,0.44-1.23,0.569-1.87c0.13-0.64,0.2-1.3,0.2-1.95
			C387.139,376.491,387.069,375.83,386.939,375.19z"/>
	</g>
</g>
<g>
	<g>
		<path d="M245.97,132.6c-0.13-0.63-0.32-1.26-0.57-1.87c-0.25-0.6-0.56-1.18-0.92-1.72c-0.37-0.55-0.79-1.06-1.25-1.52
			c-0.46-0.471-0.97-0.881-1.52-1.25c-0.54-0.36-1.12-0.671-1.72-0.921c-0.61-0.25-1.23-0.439-1.87-0.569
			c-1.29-0.26-2.62-0.26-3.91,0c-0.64,0.13-1.27,0.319-1.87,0.569c-0.61,0.25-1.19,0.561-1.73,0.921
			c-0.55,0.369-1.06,0.779-1.52,1.25c-0.46,0.46-0.88,0.97-1.24,1.52c-0.36,0.54-0.67,1.12-0.92,1.72
			c-0.25,0.61-0.44,1.24-0.57,1.87c-0.13,0.65-0.2,1.311-0.2,1.96c0,0.65,0.07,1.3,0.2,1.95c0.13,0.64,0.32,1.27,0.57,1.87
			c0.25,0.6,0.56,1.18,0.92,1.73c0.36,0.54,0.78,1.061,1.24,1.52c0.46,0.46,0.97,0.88,1.52,1.24c0.54,0.359,1.13,0.67,1.73,0.92
			c0.6,0.25,1.23,0.44,1.87,0.569c0.64,0.131,1.3,0.2,1.95,0.2c0.66,0,1.31-0.069,1.96-0.2c0.63-0.13,1.26-0.319,1.87-0.569
			c0.6-0.25,1.18-0.56,1.72-0.92c0.55-0.36,1.06-0.78,1.52-1.24c1.87-1.86,2.93-4.44,2.93-7.07
			C246.16,133.911,246.1,133.25,245.97,132.6z"/>
	</g>
</g>
<g>
</g>
<g>
</g>
<g>
</g>
<g>
</g>
<g>
</g>
<g>
</g>
<g>
</g>
<g>
</g>
<g>
</g>
<g>
</g>
<g>
</g>
<g>
</g>
<g>
</g>
<g>
</g>
<g>
</g>
</svg>
