<?xml version="1.0" encoding="UTF-8"?>
<!DOCTYPE svg PUBLIC "-//W3C//DTD SVG 1.1//EN" "http://www.w3.org/Graphics/SVG/1.1/DTD/svg11.dtd">
<!-- Creator: CorelDRAW 2017 -->
<svg xmlns="http://www.w3.org/2000/svg" xml:space="preserve" width="297mm" height="210mm" version="1.1" style="shape-rendering:geometricPrecision; text-rendering:geometricPrecision; image-rendering:optimizeQuality; fill-rule:evenodd; clip-rule:evenodd"
viewBox="0 0 29700 21000"
 xmlns:xlink="http://www.w3.org/1999/xlink"  stroke="#ffffff"  fill="#fff">
 <defs>
  <style type="text/css">
  </style>
 </defs>
 <g id="Слой_x0020_1">
  <metadata id="CorelCorpID_0Corel-Layer"/>
  <path class="fil0" d="M23211.1 1376.13c-2369.46,0 -4685.93,-446.23 -6885.32,-1325.79l-125.58 -50.34 -125.22 50.26c-2199.67,879.64 -4516.21,1325.8 -6885.67,1325.8l-752.4 0 0 7088.23 -1687.63 0c-558.27,0 -1012.56,454.29 -1012.56,1012.56l0 5738.1c0,558.27 454.29,1012.64 1012.56,1012.64l3037.76 0c0.65,0 1.01,0 1.66,0 797.26,1266.75 1901.99,2313.08 3219.08,3031.07l3192.36 1741.35 3192.36 -1741.35c2819.73,-1537.78 4570.87,-4488.2 4570.87,-7699.79l-0.01 -10182.74 -752.26 0zm-16799.39 13838.82l0 -5738.1c0,-185.99 151.21,-337.5 337.5,-337.5l3037.76 0c186.28,0 337.5,151.57 337.5,337.5l0 5738.1c0,185.99 -151.21,337.57 -337.5,337.57l-3037.69 0c-186.36,0 -337.57,-151.57 -337.57,-337.57zm4387.96 -5065.98c1127.05,-61.06 2025.2,-997.44 2025.2,-2139.26l0 -1739.33c0,-465.09 378.4,-843.85 843.85,-843.85 465.45,0 843.85,378.69 843.85,843.85l0 2124.42c0,596.72 485.4,1082.12 1082.12,1082.12l2474.46 0c644.32,0 1168.89,524.21 1168.89,1168.89l0 3737.82c0,644.68 -524.5,1168.89 -1168.89,1168.89l-4973.24 0c-268.01,0 -516.43,-133.36 -665.27,-356.07 -274.06,-411.09 -732.82,-656.49 -1226.93,-656.49l-404.04 0 0 -4390.99 0 0zm12488.7 1409.82c0,2964.24 -1616.41,5687.77 -4218.82,7107.1l-2869.34 1565.15 -2869.34 -1565.15c-1174.29,-640.65 -2166.62,-1563.13 -2896.34,-2679.02 204.86,-172.17 339.59,-421.89 358.45,-705.45 681.11,1174.94 1662,2137.6 2861.27,2791.71l2546.03 1388.94 2546.03 -1388.94c2385.38,-1300.88 3867.14,-3796.93 3867.14,-6514.05l-0.01 -5119.99 -675.06 0 0 5120.06c0,2469.7 -1346.75,4739 -3515.1,5921.36l-2223 1212.46 -2223 -1212.46c-951.14,-518.81 -1750.13,-1251.92 -2350.6,-2138.97 94.19,59.05 178.58,134.01 242.38,229.56 274.06,411.09 732.82,656.49 1226.93,656.49l4973.23 0c1016.96,0 1843.96,-827.29 1843.96,-1843.96l0 -3737.82c0,-1016.67 -826.93,-1843.96 -1843.96,-1843.96l-2474.45 0.01c-224.45,0 -407.06,-182.61 -407.06,-407.06l0 -2124.42c0,-837.44 -681.47,-1518.92 -1518.92,-1518.92 -837.44,0 -1518.92,681.47 -1518.92,1518.92l0 1738.97c0,769.61 -597.08,1395.35 -1351.5,1455.77 -3.38,-293.28 -133.36,-554.6 -336.2,-737.5l0.01 -5365.11c1960.39,-120.47 3888.74,-521.12 5738.03,-1192.87 1849.36,671.68 3777.35,1072.33 5738.03,1192.87l0 376.38 675.06 0.01 0 -1018.69 -322.02 -14.83c-2043.42,-93.47 -4053.42,-501.24 -5974,-1211.74l-117.16 -43.56 -117.16 43.2c-1920.93,710.49 -3930.94,1118.27 -5974,1211.74l-322.02 15.19 0 5744.15 -675.04 0 0 -6413.17 77.26 0c2411.01,0 4768.67,-445.58 7010.9,-1324.5 2242.23,878.92 4599.88,1324.5 7010.9,1324.5l77.26 0 0 9507.6 0.15 0z"/>
  <rect class="fil0" x="21938.24" y="5088.96" width="675.07" height="675.07"/>
  <rect class="fil0" x="7086.77" y="14202.38" width="2362.7" height="675.07"/>
  <g id="_1783968128176">
  </g>
  <g id="_1783968128272">
  </g>
  <g id="_1783968125872">
  </g>
  <g id="_1783968126928">
  </g>
  <g id="_1783968125968">
  </g>
  <g id="_1783968126384">
  </g>
  <g id="_1783968126896">
  </g>
  <g id="_1783968127728">
  </g>
  <g id="_1783968127248">
  </g>
  <g id="_1783968126576">
  </g>
  <g id="_1783968125168">
  </g>
  <g id="_1783968124272">
  </g>
  <g id="_1783968125712">
  </g>
  <g id="_1783968121520">
  </g>
  <g id="_1783968118704">
  </g>
 </g>
</svg>
