<?xml version="1.0" encoding="iso-8859-1"?>
<!-- Generator: Adobe Illustrator 19.0.0, SVG Export Plug-In . SVG Version: 6.00 Build 0)  -->
<svg version="1.1" id="Layer_1" xmlns="http://www.w3.org/2000/svg" xmlns:xlink="http://www.w3.org/1999/xlink" x="0px" y="0px"
	 viewBox="0 0 512 512" style="enable-background:new 0 0 512 512;" xml:space="preserve"  stroke="#ffffff"  fill="#fff">
<g>
	<g>
		<g>
			<path d="M493.137,361.095c10.401,0,18.863-8.463,18.863-18.863v-204.8c0-10.401-8.463-18.863-18.863-18.863H277.558
				c-10.401,0-18.863,8.463-18.863,18.863v132.042h-80.842v-35.032c0-10.401-8.463-18.863-18.863-18.863h-2.695v-43.572
				l31.117-51.861c0.762-1.221,1.206-2.66,1.219-4.202c0-0.003,0-0.006,0-0.01c0-0.004,0-0.009,0-0.013c0-0.006,0-0.013,0-0.019
				c0-0.002,0-0.004,0-0.006c0-0.009,0-0.016,0-0.023v-97.01C188.632,8.463,180.169,0,169.768,0h-43.116
				c-4.465,0-8.084,3.619-8.084,8.084s3.62,8.084,8.084,8.084h43.116c1.485,0,2.695,1.208,2.695,2.695v88.926h-67.368
				c-4.465,0-8.084,3.618-8.084,8.084c0,4.466,3.62,8.084,8.084,8.084h61.174l-22.636,37.726h-33.961l-28.829-48.049V18.863
				c0-1.486,1.209-2.695,2.695-2.695h10.779c4.465,0,8.084-3.619,8.084-8.084S98.78,0,94.316,0H83.537
				C73.136,0,64.674,8.463,64.674,18.863v97.011c0,1.465,0.399,2.903,1.152,4.159l31.185,51.975v43.572h-9.147l-19.159-28.737
				c-1.499-2.25-4.023-3.6-6.726-3.6h-45.81V148.21c0-4.466-3.62-8.084-8.084-8.084S0,143.745,0,148.21v172.463
				c0,4.466,3.62,8.084,8.084,8.084h24.253v16.168H8.084C3.62,344.926,0,348.545,0,353.01v150.905C0,508.382,3.62,512,8.084,512
				h495.832c4.466,0,8.084-3.618,8.084-8.084c0-4.466-3.618-8.084-8.084-8.084h-45.81V361.095H493.137z M113.179,177.853h26.947
				v37.726h-26.947V177.853z M16.168,312.589v-26.947h24.253c4.465,0,8.084-3.618,8.084-8.084c0-4.466-3.62-8.084-8.084-8.084
				H16.168v-70.063h41.484l19.157,28.737c1.499,2.25,4.023,3.6,6.726,3.6h75.453c1.485,0,2.695,1.208,2.695,2.695v35.032H72.758
				c-4.465,0-8.084,3.618-8.084,8.084c0,4.466,3.62,8.084,8.084,8.084h185.937v26.947h-45.811H16.168z M258.695,328.758v16.168
				h-37.726v-16.168H258.695z M204.8,328.758v16.168H48.505v-16.168H204.8z M46.873,495.832H16.168v-16.168h41.484L46.873,495.832z
				 M66.306,495.832l10.779-16.168h109.916l10.779,16.168H66.306z M240.894,495.832H217.21l-10.779-16.168h45.242L240.894,495.832z
				 M260.327,495.832l10.779-16.168h109.916l10.779,16.168H260.327z M441.937,495.832h-30.705l-10.779-16.168h41.484V495.832z
				 M441.937,463.495h-56.48c-0.078-0.002-0.156-0.002-0.234,0h-110.36v-78.147c0-4.466-3.618-8.084-8.084-8.084
				c-4.466,0-8.084,3.618-8.084,8.084v78.147h-67.258c-0.078-0.002-0.156-0.002-0.234,0H72.882c-0.078-0.002-0.156-0.002-0.234,0
				H16.168v-102.4h425.768V463.495z M274.863,344.926V137.432c0-1.486,1.208-2.695,2.695-2.695h215.579
				c1.486,0,2.695,1.208,2.695,2.695v204.8c0,1.486-1.208,2.695-2.695,2.695H274.863z"/>
			<path d="M40.421,436.547h43.116c4.465,0,8.084-3.618,8.084-8.084c0-4.466-3.62-8.084-8.084-8.084H40.421
				c-4.465,0-8.084,3.618-8.084,8.084C32.337,432.929,35.956,436.547,40.421,436.547z"/>
			<path d="M309.895,404.211h43.116c4.466,0,8.084-3.618,8.084-8.084c0-4.466-3.618-8.084-8.084-8.084h-43.116
				c-4.466,0-8.084,3.618-8.084,8.084C301.811,400.592,305.429,404.211,309.895,404.211z"/>
			<path d="M40.421,404.211h43.116c4.465,0,8.084-3.618,8.084-8.084c0-4.466-3.62-8.084-8.084-8.084H40.421
				c-4.465,0-8.084,3.618-8.084,8.084C32.337,400.592,35.956,404.211,40.421,404.211z"/>
			<path d="M460.8,161.684H331.453c-4.466,0-8.084,3.619-8.084,8.084v140.126c0,4.466,3.619,8.084,8.084,8.084H460.8
				c4.466,0,8.084-3.618,8.084-8.084V169.768C468.884,165.303,465.266,161.684,460.8,161.684z M452.716,301.811h-26.947v-99.705
				c0-4.466-3.619-8.084-8.084-8.084s-8.084,3.618-8.084,8.084v99.705h-70.063V177.853h26.947v99.705
				c0,4.466,3.619,8.084,8.084,8.084s8.084-3.618,8.084-8.084v-99.705h70.063V301.811z"/>
			<path d="M299.116,194.021c-4.466,0-8.084,3.618-8.084,8.084v75.453c0,4.466,3.619,8.084,8.084,8.084
				c4.466,0,8.084-3.618,8.084-8.084v-75.453C307.2,197.64,303.582,194.021,299.116,194.021z"/>
			<path d="M309.895,436.547h43.116c4.466,0,8.084-3.618,8.084-8.084c0-4.466-3.618-8.084-8.084-8.084h-43.116
				c-4.466,0-8.084,3.618-8.084,8.084C301.811,432.929,305.429,436.547,309.895,436.547z"/>
		</g>
	</g>
</g>
<g>
</g>
<g>
</g>
<g>
</g>
<g>
</g>
<g>
</g>
<g>
</g>
<g>
</g>
<g>
</g>
<g>
</g>
<g>
</g>
<g>
</g>
<g>
</g>
<g>
</g>
<g>
</g>
<g>
</g>
</svg>
